<svg width="44" height="44" viewBox="0 0 44 44" fill="none" xmlns="http://www.w3.org/2000/svg">
<rect width="44" height="44" rx="22" fill="#F2F2F2"/>
<path d="M25.5584 17.0741C25.5584 19.0395 23.9652 20.6327 21.9999 20.6327C20.0346 20.6327 18.4414 19.0395 18.4414 17.0741C18.4414 15.1088 20.0346 13.5156 21.9999 13.5156C23.9652 13.5156 25.5584 15.1088 25.5584 17.0741Z" fill="#1B3E3D" stroke="#1B3E3D"/>
<path d="M29.0124 27.8154V29.2227C29.0124 29.9194 28.4479 30.4839 27.7512 30.4839H16.2515C15.5547 30.4839 14.9902 29.9194 14.9902 29.2227V27.8154C14.9902 25.4392 16.9365 23.4929 19.3127 23.4929H24.69C27.0662 23.4929 29.0124 25.4392 29.0124 27.8154Z" fill="#1B3E3D" stroke="#1B3E3D"/>
</svg>
