<svg width="32" height="32" viewBox="0 0 32 32" fill="none" xmlns="http://www.w3.org/2000/svg">
<path d="M28 22.5V21.5C28 21.1895 27.9277 20.8833 27.7889 20.6056C27.65 20.3279 27.4484 20.0863 27.2 19.9L24.8 18.1C24.5516 17.9137 24.35 17.6721 24.2111 17.3944C24.0723 17.1167 24 16.8105 24 16.5V12L21 13.2855V25L28 22.5Z" fill="#AAADB9"/>
<path d="M22.5 13.5L19 13V10.5H22.5V13.5Z" fill="#F4C8AD"/>
<path d="M15.5 10.5L13 8.5H9V16H14V12.4L15 13H19V10.5H15.5Z" fill="#1B3E3D"/>
<path d="M9 16H15.867C16.4327 16 16.9752 16.2247 17.3753 16.6247C17.7753 17.0248 18 17.5673 18 18.133V23L15.5 25V19.712C15.5 19.3906 15.3723 19.0823 15.145 18.855C14.9177 18.6277 14.6094 18.5 14.288 18.5H9V16Z" fill="#AAADB9"/>
<path d="M29.1631 26C29.3968 26.4934 29.5119 27.0346 29.499 27.5805C29.4862 28.1263 29.3459 28.6615 29.0892 29.1434C28.8326 29.6253 28.4668 30.0404 28.0211 30.3557C27.5753 30.6709 27.062 30.8776 26.5222 30.959C25.9823 31.0405 25.4309 30.9945 24.912 30.8248C24.3931 30.6551 23.9211 30.3663 23.5337 29.9816C23.1463 29.5969 22.8543 29.1269 22.681 28.6092C22.5077 28.0915 22.4579 27.5404 22.5356 27V26H29.1631Z" fill="#393A3A"/>
<path d="M26.4122 26.0576C26.7012 26.1402 26.9587 26.3077 27.1514 26.5385C27.3441 26.7692 27.4629 27.0525 27.4927 27.3516C27.5224 27.6507 27.4615 27.9519 27.318 28.216C27.1745 28.4801 26.955 28.695 26.6878 28.8329C26.4207 28.9707 26.1184 29.0251 25.8199 28.989C25.5215 28.9529 25.2408 28.828 25.0143 28.6305C24.7877 28.433 24.6257 28.1719 24.5493 27.8812C24.4729 27.5905 24.4856 27.2835 24.5857 27.0001L26.4122 26.0576Z" fill="#9A9B9F"/>
<path d="M13.5 27H1V25.5L4 21.5H13.5V27Z" fill="#AAADB9"/>
<path d="M3.5 18.5H12.5C12.7652 18.5 13.0196 18.6054 13.2071 18.7929C13.3946 18.9804 13.5 19.2348 13.5 19.5V21.5H3.5C3.23478 21.5 2.98043 21.3946 2.79289 21.2071C2.60536 21.0196 2.5 20.7652 2.5 20.5V19.5C2.5 19.2348 2.60536 18.9804 2.79289 18.7929C2.98043 18.6054 3.23478 18.5 3.5 18.5Z" fill="#393A3A"/>
<path d="M26.5 26H31V25.5C31 24.7044 30.6839 23.9413 30.1213 23.3787C29.5587 22.8161 28.7956 22.5 28 22.5H23.5C22.837 22.5 22.2011 22.7634 21.7322 23.2322C21.2634 23.7011 21 24.337 21 25V27H25L26.5 26Z" fill="#BBBDC7"/>
<path d="M11.4645 27C11.5358 27.4966 11.4995 28.0026 11.358 28.4839C11.2166 28.9652 10.9734 29.4105 10.6448 29.7896C10.3163 30.1687 9.91008 30.4727 9.45375 30.681C8.99743 30.8894 8.50164 30.9972 8 30.9972C7.49836 30.9972 7.00257 30.8894 6.54625 30.681C6.08992 30.4727 5.68372 30.1687 5.35516 29.7896C5.02661 29.4105 4.78338 28.9652 4.64196 28.4839C4.50054 28.0026 4.46423 27.4966 4.5355 27H11.4645Z" fill="#393A3A"/>
<path d="M9.4145 27C9.49434 27.2262 9.51875 27.4683 9.48569 27.7059C9.45263 27.9435 9.36306 28.1697 9.2245 28.3656C9.08594 28.5614 8.90242 28.7211 8.68936 28.8314C8.4763 28.9416 8.2399 28.9992 8 28.9992C7.7601 28.9992 7.5237 28.9416 7.31064 28.8314C7.09758 28.7211 6.91407 28.5614 6.7755 28.3656C6.63694 28.1697 6.54737 27.9435 6.51431 27.7059C6.48125 27.4683 6.50566 27.2262 6.5855 27H9.4145Z" fill="#9A9B9F"/>
<path d="M4 21.5H3.5C3.23478 21.5 2.98043 21.3946 2.79289 21.2071C2.60536 21.0196 2.5 20.7652 2.5 20.5V19.5C2.5 19.2348 2.60536 18.9804 2.79289 18.7929C2.98043 18.6054 3.23478 18.5 3.5 18.5H12.5C12.7652 18.5 13.0196 18.6054 13.2071 18.7929C13.3946 18.9804 13.5 19.2348 13.5 19.5V21.5H4Z" fill="#393A3A"/>
<path d="M22.5 13.5C23.3284 13.5 24 12.8284 24 12C24 11.1716 23.3284 10.5 22.5 10.5C21.6716 10.5 21 11.1716 21 12C21 12.8284 21.6716 13.5 22.5 13.5Z" fill="#EAEBEF"/>
<path d="M26 10H28C28.1326 10 28.2598 10.0527 28.3536 10.1464C28.4473 10.2402 28.5 10.3674 28.5 10.5V13.5C28.5 13.6326 28.4473 13.7598 28.3536 13.8536C28.2598 13.9473 28.1326 14 28 14H26C25.4696 14 24.9609 13.7893 24.5858 13.4142C24.2107 13.0391 24 12.5304 24 12C24 11.4696 24.2107 10.9609 24.5858 10.5858C24.9609 10.2107 25.4696 10 26 10Z" fill="#AAADB9"/>
<path d="M7 10.5H1V16.5H7V10.5Z" fill="#1B3E3D"/>
<path d="M19 25V23.97C18.9999 23.7128 18.8976 23.4661 18.7157 23.2843C18.5339 23.1024 18.2872 23.0001 18.03 23H15.5V25H19Z" fill="#EAEBEF"/>
<path d="M9.5 4V8.5H13C13.2652 8.5 13.5196 8.39464 13.7071 8.20711C13.8946 8.01957 14 7.76522 14 7.5V7L15 6.5L14 5.5V4H9.5Z" fill="#F4C8AD"/>
<path d="M7 10.5H1V12.5H7V10.5Z" fill="#D16B5D"/>
<path d="M7 16.5H3.5V18.5H7V16.5Z" fill="#9A9B9F"/>
<path d="M21 25H13.5V27H21V25Z" fill="#80828B"/>
<path opacity="0.1" d="M2 10.742C2.00013 11.0756 2.13271 11.3955 2.36861 11.6314C2.6045 11.8673 2.9244 11.9999 3.258 12H7V10.5H2V10.742ZM7 16.5V13H3.0645C2.78218 13 2.51142 13.1122 2.31178 13.3118C2.11215 13.5114 2 13.7822 2 14.0645V16.5H7ZM4.5 17.8165V18.5H7V17H5.3165C5.09995 17 4.89227 17.086 4.73915 17.2391C4.58602 17.3923 4.5 17.6 4.5 17.8165ZM10.8165 23H2.875L1 25.5V27H12.5V24.6835C12.5001 24.4624 12.4566 24.2435 12.372 24.0392C12.2874 23.8349 12.1634 23.6493 12.0071 23.4929C11.8507 23.3366 11.6651 23.2126 11.4608 23.128C11.2565 23.0434 11.0376 22.9999 10.8165 23Z" fill="white"/>
<path d="M15 4C15 3.20435 14.6839 2.44129 14.1213 1.87868C13.5587 1.31607 12.7956 1 12 1C11.2044 1 10.4413 1.31607 9.87868 1.87868C9.31607 2.44129 9 3.20435 9 4V5H11.5V4H15Z" fill="#1B3E3D"/>
<path d="M28 10H26.5V14H28C28.1326 14 28.2598 13.9473 28.3536 13.8536C28.4473 13.7598 28.5 13.6326 28.5 13.5V10.5C28.5 10.3674 28.4473 10.2402 28.3536 10.1464C28.2598 10.0527 28.1326 10 28 10Z" fill="#FFC239"/>
<path opacity="0.2" d="M28 10H26C25.6479 10.0018 25.3027 10.0976 25 10.2775V11.333C25 11.7751 25.1756 12.1991 25.4883 12.5117C25.8009 12.8244 26.2249 13 26.667 13H28.5V10.5C28.5 10.3674 28.4473 10.2402 28.3536 10.1464C28.2598 10.0527 28.1326 10 28 10Z" fill="white"/>
<path opacity="0.1" d="M10.69 10.9999H13.577C13.8528 10.9998 14.1225 11.0814 14.352 11.2344L15.219 11.8124C15.4021 11.9347 15.6173 11.9999 15.8375 11.9999H17.666C17.8872 11.9999 18.0993 11.912 18.2557 11.7556C18.4121 11.5992 18.5 11.3871 18.5 11.1659V10.4999H15.5L13 8.49989H9.5V9.80989C9.50013 10.1255 9.62555 10.4281 9.84869 10.6512C10.0718 10.8743 10.3744 10.9998 10.69 10.9999ZM14.955 3.49989C14.8665 2.97071 14.6375 2.47504 14.2918 2.06473C13.9461 1.65442 13.4965 1.34456 12.99 1.16757C12.4835 0.990582 11.9388 0.952968 11.4127 1.05867C10.8867 1.16436 10.3988 1.40949 10 1.76839V1.98889C10 2.38963 10.1592 2.77396 10.4426 3.05733C10.7259 3.34069 11.1103 3.49989 11.511 3.49989H14.955ZM27.2 19.8999L24.8 18.0999C24.5516 17.9136 24.35 17.672 24.2111 17.3943C24.0723 17.1166 24 16.8104 24 16.4999V14.9999H23C22.7348 14.9999 22.4804 15.1052 22.2929 15.2928C22.1054 15.4803 22 15.7347 22 15.9999V20.4999C22 20.7651 22.1054 21.0195 22.2929 21.207C22.4804 21.3945 22.7348 21.4999 23 21.4999H28C28 21.1894 27.9277 20.8832 27.7889 20.6055C27.65 20.3278 27.4484 20.0862 27.2 19.8999Z" fill="white"/>
</svg>
